<svg width="50" height="50" viewBox="0 0 50 50" fill="none" xmlns="http://www.w3.org/2000/svg">
<g clip-path="url(#clip0_193_334)">
<path fill-rule="evenodd" clip-rule="evenodd" d="M42.9199 0.257071C42.7123 0.174469 42.505 0.091963 42.3045 5.76898e-05C33.2951 5.76898e-05 24.2987 5.76898e-05 15.3024 -0.0129395C15.2894 -0.00644088 15.2764 0.00330698 15.2634 0.0130548C15.2504 0.0228027 15.2374 0.0325505 15.2244 0.0390491C12.8583 0.649915 11.7402 2.0926 11.7402 4.52306V22.0172C11.7402 22.1992 11.7402 22.3811 11.7662 22.5501C11.8312 22.992 12.1172 23.239 12.5593 23.2649C12.9883 23.2909 13.3263 22.992 13.3913 22.5371C13.4173 22.3422 13.4173 22.1472 13.4173 21.9523V21.9522V4.45808C13.4173 2.61248 14.4053 1.6377 16.2514 1.6377C18.644 1.6377 21.0355 1.63982 23.4265 1.64194H23.4266C29.4025 1.64725 35.3757 1.65255 41.3554 1.6247C42.9805 1.6247 44.2025 2.71646 44.2025 4.45808C44.1635 17.2733 44.1635 30.0884 44.2025 42.9036C44.2155 44.5673 43.0845 45.776 41.3684 45.75C38.0471 45.7136 34.7257 45.7218 31.4044 45.73H31.4035C29.98 45.7335 28.5564 45.737 27.1329 45.737C26.8988 45.737 26.6648 45.737 26.4568 45.802C26.0538 45.919 25.8718 46.2309 25.9108 46.6598C25.9498 47.0627 26.1838 47.3097 26.5868 47.3746C26.7168 47.4006 26.8468 47.4006 26.9769 47.4006C28.1822 47.4006 29.3884 47.4015 30.595 47.4023H30.5962H30.5975H30.5987H30.5999H30.6011H30.6024H30.6036H30.6048H30.6074H30.6081H30.6087H30.6094H30.6101H30.6108H30.6114H30.6121C34.2409 47.4047 37.8733 47.4071 41.4984 47.3876C42.0575 47.3876 42.6425 47.2967 43.1625 47.1147C44.8786 46.5038 45.8406 44.9832 45.8406 42.9556V4.45808V4.45794C45.8406 4.30201 45.8406 4.1331 45.8276 3.97718C45.7626 2.69047 45.2426 1.59871 44.1765 0.870866C43.7972 0.606277 43.358 0.431461 42.9199 0.257071ZM8.15616 28.4694L8.1565 28.4697L8.15684 28.47L8.15763 28.4706L8.15901 28.4717L8.15981 28.4723C8.36796 28.6386 8.58079 28.8086 8.80178 28.9835C6.52669 29.8543 5.30464 31.596 4.70662 33.8055C3.73158 37.3927 4.2906 40.8239 5.94167 44.0992C7.03371 46.2697 8.55477 48.0893 10.7779 49.2071C12.2469 49.9479 13.768 50.1949 15.354 49.636C15.7311 49.506 16.0431 49.506 16.4201 49.636C18.5132 50.3378 20.3982 49.74 22.1143 48.5312C24.1164 47.1146 25.4554 45.191 26.3525 42.9425C27.6005 39.8232 27.9645 36.6259 26.9115 33.3766C25.2994 28.3987 20.6322 27.6838 17.5121 29.8803C17.3837 29.972 17.2359 30.0314 17.055 30.104L17.055 30.104C16.9794 30.1344 16.8981 30.167 16.8101 30.2053C17.1871 28.2297 17.9801 26.696 19.7612 25.8122C20.3462 25.5263 20.5542 25.0844 20.3332 24.6165C20.1122 24.1486 19.6312 24.0316 19.0332 24.3306L19.0332 24.3306C18.6692 24.5125 18.3051 24.6945 17.9931 24.9544C17.6025 25.2864 17.2265 25.6477 16.8487 26.0108C16.7236 26.131 16.5982 26.2515 16.4721 26.3711C15.094 25.0064 13.391 24.3436 11.4279 24.4865C10.5161 24.553 9.61124 24.675 8.70826 24.7967C8.37525 24.8416 8.04249 24.8864 7.70974 24.9284C7.03371 25.0064 6.52669 25.3183 6.35768 26.0072C6.18868 26.696 6.51369 27.1899 7.04671 27.5928C7.41498 27.8773 7.77786 28.1672 8.15616 28.4694ZM24.8054 32.6617C25.5854 34.0784 25.8715 35.6121 25.8455 37.9776C25.6894 40.9279 24.5584 44.2552 21.6853 46.7896C21.0353 47.3485 20.1902 47.7384 19.3712 48.0633C18.3962 48.4533 17.3951 48.2843 16.4331 47.8554C16.1601 47.7254 15.7441 47.6734 15.484 47.8034C14.002 48.5312 12.5849 48.3363 11.2069 47.5565C10.0368 46.9066 9.11379 45.9708 8.37276 44.8661C6.27968 41.7077 5.43465 38.2765 6.26668 34.5333C6.39669 33.9225 6.6567 33.3246 6.94271 32.7657C8.20376 30.3742 10.6479 29.6984 13.0139 31.0501C13.3708 31.2528 13.7479 31.415 14.1263 31.5778C14.3545 31.676 14.5831 31.7744 14.808 31.8819C14.925 31.9339 15.042 32.0899 15.055 32.2068C15.0763 32.3983 15.0744 32.5936 15.0724 32.7885C15.0708 32.9509 15.0692 33.1131 15.081 33.2726C15.12 33.7535 15.445 34.0784 15.8871 34.0914C16.3161 34.0914 16.6671 33.7795 16.7191 33.2986C16.7377 33.1361 16.7297 32.9603 16.7219 32.7873C16.7077 32.4759 16.694 32.1734 16.8361 31.9729C16.9642 31.785 17.255 31.7094 17.5538 31.6317L17.5538 31.6317C17.7098 31.5911 17.8679 31.5499 18.0061 31.492C18.2092 31.4065 18.4035 31.2859 18.5962 31.1663L18.5962 31.1662C18.6379 31.1404 18.6795 31.1145 18.7212 31.0891C20.9573 29.6854 23.5184 30.3482 24.8054 32.6617ZM12.4809 28.9835C10.9339 28.5156 9.63381 27.6318 8.34676 26.5011C9.95883 26.1242 11.4799 25.9942 13.0009 26.2671C13.872 26.4231 14.652 26.852 15.25 27.5279C15.7961 28.1387 15.6791 28.6066 14.912 28.8926C14.119 29.1915 13.287 29.2175 12.4809 28.9835ZM28.8222 4.17218H39.7297C41.0687 4.17218 41.6797 4.79604 41.6927 6.14774V13.0102C41.6927 14.3359 41.0427 14.9728 39.7167 14.9728H17.8368C16.5367 14.9728 15.8867 14.3229 15.8867 13.0362V6.06976C15.8867 4.79604 16.5237 4.15918 17.8108 4.15918C21.4769 4.17218 25.1561 4.17218 28.8222 4.17218ZM25.6631 13.2702H40.0027V5.8618C39.9531 5.85685 39.9055 5.85001 39.8597 5.84343C39.7854 5.83277 39.716 5.82281 39.6517 5.82281C36.4535 5.82281 33.2554 5.82281 30.0443 5.80982C29.7453 5.80982 29.6153 5.93979 29.4983 6.17374C28.8937 7.29152 28.2827 8.4093 27.6716 9.52709C27.0606 10.6448 26.4496 11.7625 25.8451 12.8803C25.7801 12.9972 25.7281 13.1142 25.6631 13.2702ZM17.5768 13.2572C18.6428 13.4391 18.6688 13.4261 19.1368 12.5683C20.2679 10.4888 21.3989 8.40924 22.543 6.3427C22.5814 6.27221 22.6167 6.19856 22.6536 6.12175C22.6914 6.04277 22.7309 5.96046 22.777 5.8748H17.5898C17.5768 8.34426 17.5768 10.7877 17.5768 13.2572ZM21.3441 13.3075H21.3444C22.011 13.3051 22.6381 13.3028 23.258 13.3222C23.596 13.3352 23.778 13.2182 23.934 12.9192C24.678 11.5367 25.4321 10.1592 26.1869 8.78052L26.187 8.78018L26.1879 8.77854C26.6461 7.94152 27.1046 7.10404 27.5612 6.26472C27.6014 6.19235 27.6366 6.11003 27.6761 6.01777C27.7005 5.9609 27.7264 5.90024 27.7562 5.83581C27.5001 5.83581 27.2495 5.83799 27.0024 5.84014H27.0024H27.0024H27.0023H27.0023L27.0022 5.84014C26.3964 5.84542 25.812 5.85051 25.2211 5.82281C24.8311 5.80982 24.6231 5.92679 24.4281 6.27771C23.5879 7.84556 22.7344 9.40671 21.8819 10.966L21.8812 10.9672L21.8805 10.9685L21.8798 10.9698L21.8791 10.9711L21.8784 10.9724C21.5448 11.5825 21.2113 12.1924 20.8789 12.8023C20.8139 12.9452 20.7489 13.0882 20.6449 13.3092C20.8828 13.3092 21.1148 13.3083 21.3421 13.3075H21.3425H21.3428H21.3432H21.3435H21.3438H21.3441ZM22.7369 19.1158L22.7383 19.1158C23.2246 19.1173 23.7104 19.1187 24.1948 19.1187C24.5656 19.1187 24.9356 19.1171 25.3051 19.1155H25.3052H25.3052H25.3053H25.3054H25.3055H25.3055C26.413 19.1106 27.5169 19.1057 28.628 19.1447C29.096 19.1577 29.6031 19.3137 29.9931 19.5476C30.7471 20.0155 31.0331 20.9773 30.7731 21.8221C30.5001 22.6799 29.7071 23.2908 28.745 23.2908H22.6998C22.0757 23.3038 21.7117 23.6027 21.7117 24.1226C21.7117 24.6425 22.0757 24.9544 22.6998 24.9544C23.3715 24.9544 24.0432 24.9559 24.7149 24.9573H24.7155C26.0587 24.9602 27.4019 24.9631 28.745 24.9544C30.8511 24.9414 32.5152 23.3038 32.5282 21.2372C32.5412 19.2097 30.9161 17.5071 28.836 17.4811C25.7289 17.4421 22.6348 17.4291 19.5276 17.4811C16.8235 17.5201 15.0815 20.3664 16.2385 22.7709C16.4985 23.3038 16.9145 23.4988 17.3696 23.3038C17.8376 23.1088 17.9806 22.6669 17.7726 22.1211C17.1615 20.5224 18.1106 19.1317 19.8137 19.1187C20.7848 19.11 21.7618 19.1129 22.7369 19.1158ZM37.4796 24.9575L37.4793 24.9575H37.4792H37.4791H37.4791H37.479H37.4789C37.1974 24.9604 36.9139 24.9633 36.6362 24.9546C35.2971 24.9156 34.2311 23.8628 34.2051 22.5241C34.1921 21.6793 34.1921 20.8345 34.2051 19.9897C34.2181 18.586 35.2451 17.5202 36.6362 17.4682C37.4942 17.4422 38.3522 17.4422 39.2233 17.4682C40.6273 17.5072 41.6413 18.547 41.6934 19.9767C41.7194 20.8085 41.7194 21.6273 41.6934 22.4591C41.6413 23.9278 40.5883 24.9416 39.1323 24.9546H37.8972C37.7591 24.9546 37.6196 24.956 37.4796 24.9575ZM35.8663 21.561V21.5614C35.8634 21.8314 35.8604 22.1034 35.8691 22.3812C35.8821 22.966 36.1941 23.291 36.7662 23.304C37.5462 23.3169 38.3262 23.3169 39.1063 23.304C39.6653 23.291 40.0033 23.005 40.0163 22.4461C40.0423 21.6403 40.0423 20.8215 40.0163 20.0157C40.0033 19.4828 39.6913 19.1579 39.1583 19.1449C38.3522 19.1189 37.5332 19.1189 36.7272 19.1449C36.1681 19.1579 35.8821 19.4958 35.8691 20.0547C35.8605 20.2877 35.8633 20.5322 35.8662 20.7806C35.8677 20.9062 35.8691 21.0328 35.8691 21.1594C35.8691 21.2927 35.8677 21.4259 35.8663 21.5596V21.56V21.5603V21.5606V21.561ZM34.2021 29.9044V29.9048V29.9051V29.9054V29.9058C34.2036 30.0454 34.205 30.1845 34.205 30.3222V31.544C34.231 33.0386 35.271 34.0914 36.7531 34.1174C37.5331 34.1304 38.3132 34.1304 39.0932 34.1174C40.5882 34.0914 41.6413 33.0906 41.6933 31.596C41.7193 30.7641 41.7193 29.9453 41.6933 29.1135C41.6413 27.7358 40.6402 26.683 39.3142 26.6311C38.4042 26.5921 37.4941 26.6051 36.5841 26.6311C35.258 26.683 34.231 27.7358 34.205 29.0615C34.1963 29.3393 34.1992 29.6228 34.2021 29.9044ZM35.8662 30.7242V30.7238V30.7235V30.7231C35.8676 30.5892 35.8691 30.4557 35.8691 30.3222C35.8691 30.1419 35.8659 29.9583 35.8626 29.7731V29.7729V29.7726V29.7724C35.8594 29.5842 35.8561 29.3943 35.8561 29.2045C35.8691 28.6196 36.1811 28.2947 36.7531 28.2817C37.5461 28.2687 38.3392 28.2687 39.1322 28.2817C39.6652 28.2947 39.9902 28.5936 40.0032 29.1265C40.0292 29.9583 40.0292 30.7771 40.0032 31.6089C39.9902 32.1288 39.6652 32.4278 39.1192 32.4408C38.3261 32.4538 37.5331 32.4668 36.7401 32.4408C36.1941 32.4278 35.8821 32.1028 35.8691 31.544C35.8604 31.2662 35.8633 30.9942 35.8662 30.7242ZM34.205 39.5114C34.205 39.3636 34.2035 39.2173 34.2021 39.0714C34.1992 38.7812 34.1963 38.4928 34.205 38.1987C34.244 36.86 35.297 35.8072 36.6361 35.7812C37.4681 35.7682 38.2872 35.7682 39.1192 35.7812C40.5623 35.7942 41.6153 36.782 41.6803 38.2377C41.7193 39.0955 41.7193 39.9533 41.6803 40.8241C41.6153 42.2408 40.5883 43.2416 39.1712 43.2806C38.3652 43.3066 37.5461 43.3066 36.7401 43.2806C35.258 43.2416 34.231 42.1888 34.218 40.6941C34.205 40.2912 34.205 39.9013 34.205 39.5114ZM35.8662 39.874V39.8744C35.8633 40.1444 35.8604 40.4164 35.8691 40.6941C35.8821 41.227 36.1681 41.565 36.6881 41.591C37.5201 41.6169 38.3392 41.6169 39.1712 41.591C39.6782 41.578 40.0032 41.266 40.0162 40.7591C40.0422 39.9273 40.0422 39.1085 40.0162 38.2767C40.0032 37.7438 39.6782 37.4449 39.1452 37.4319C38.3522 37.4189 37.5591 37.4189 36.7661 37.4319C36.1941 37.4449 35.8821 37.7568 35.8691 38.3547C35.8604 38.6069 35.8633 38.8592 35.8662 39.1076C35.8676 39.2303 35.8691 39.3521 35.8691 39.4724C35.8691 39.6061 35.8676 39.7398 35.8662 39.874ZM32.5528 30.8635C32.556 30.7006 32.5591 30.5375 32.5666 30.3743C32.5536 30.3743 32.5406 30.3743 32.5406 30.3613C32.5406 30.2135 32.5435 30.0672 32.5464 29.9214V29.9212C32.5521 29.631 32.5579 29.3427 32.5406 29.0486C32.4756 27.6709 31.4355 26.6441 30.0575 26.6181C29.2124 26.6051 28.3674 26.6051 27.5224 26.6181C26.8203 26.6311 26.2223 26.8781 25.7413 27.398C25.3773 27.8009 25.3513 28.2298 25.6633 28.5807C25.9883 28.9446 26.4433 28.9186 26.8853 28.6197C27.1323 28.4507 27.4573 28.3208 27.7564 28.2948C28.3692 28.2502 28.9821 28.2629 29.5949 28.2757H29.595C29.6971 28.2778 29.7993 28.2799 29.9014 28.2818C30.5515 28.2948 30.8635 28.5937 30.8765 29.2436C30.8852 29.608 30.8823 29.9782 30.8794 30.3464C30.8779 30.5298 30.8765 30.7127 30.8765 30.8942C30.8765 32.2719 30.8245 32.3239 29.4594 32.4539C29.0174 32.5058 28.6924 32.8308 28.6794 33.2467C28.6534 33.6366 28.9394 33.9875 29.3424 34.0915C30.7335 34.4294 32.2155 33.4936 32.4626 32.0769C32.5369 31.6775 32.5448 31.2715 32.5528 30.8635ZM32.5434 39.9418V39.9421C32.5463 40.2237 32.5492 40.5073 32.5405 40.785C32.4885 42.0587 31.6435 43.0335 30.3824 43.2155C29.9794 43.2675 29.5764 43.2675 29.1734 43.2415C28.6794 43.2025 28.3544 42.8256 28.3804 42.3707C28.4064 41.9288 28.7314 41.6298 29.2254 41.6038C29.3554 41.5974 29.4854 41.5974 29.6154 41.5974C29.7454 41.5974 29.8754 41.5974 30.0054 41.5909C30.5644 41.5519 30.8765 41.2529 30.8895 40.694C30.9153 39.9055 30.9026 39.1169 30.8897 38.3155L30.8895 38.3026C30.8765 37.7827 30.6034 37.5097 30.0964 37.4188C29.4724 37.3148 29.1734 36.9899 29.2254 36.47C29.2904 35.9631 29.6804 35.7031 30.3174 35.7681C31.5395 35.8851 32.5015 36.9119 32.5535 38.1986C32.5535 38.4195 32.5503 38.6405 32.547 38.8615C32.5438 39.0824 32.5405 39.3034 32.5405 39.5243C32.5405 39.6623 32.542 39.8018 32.5434 39.9418ZM8.46265 33.3637C7.78662 34.5464 7.56561 35.8461 7.47461 37.2108C7.53095 37.5401 7.58439 37.8708 7.63784 38.2015C7.74473 38.8629 7.85162 39.5243 7.98163 40.1742C8.08563 40.7331 8.52765 40.993 9.00867 40.863C9.50269 40.7331 9.7107 40.2911 9.55469 39.7063C9.54943 39.6852 9.54202 39.662 9.53422 39.6376C9.52276 39.6016 9.51042 39.563 9.50269 39.5243C9.03467 37.8867 9.09967 36.262 9.6977 34.6634C9.8667 34.1955 10.1137 33.8316 10.5817 33.6236C10.9978 33.4287 11.1538 32.9478 10.9717 32.5449C10.8027 32.1549 10.3477 31.973 9.90571 32.1289C9.26868 32.3499 8.80066 32.7788 8.46265 33.3637Z" fill="black"/>
<path fill-rule="evenodd" clip-rule="evenodd" d="M42.9199 0.257071C42.7123 0.174469 42.505 0.091963 42.3045 5.76898e-05C33.2951 5.76898e-05 24.2987 5.76898e-05 15.3024 -0.0129395C15.2894 -0.00644088 15.2764 0.00330698 15.2634 0.0130548C15.2504 0.0228027 15.2374 0.0325505 15.2244 0.0390491C12.8583 0.649915 11.7402 2.0926 11.7402 4.52306V22.0172C11.7402 22.1992 11.7402 22.3811 11.7662 22.5501C11.8312 22.992 12.1172 23.239 12.5593 23.2649C12.9883 23.2909 13.3263 22.992 13.3913 22.5371C13.4173 22.3422 13.4173 22.1472 13.4173 21.9523V21.9522V4.45808C13.4173 2.61248 14.4053 1.6377 16.2514 1.6377C18.644 1.6377 21.0355 1.63982 23.4265 1.64194H23.4266C29.4025 1.64725 35.3757 1.65255 41.3554 1.6247C42.9805 1.6247 44.2025 2.71646 44.2025 4.45808C44.1635 17.2733 44.1635 30.0884 44.2025 42.9036C44.2155 44.5673 43.0845 45.776 41.3684 45.75C38.0471 45.7136 34.7257 45.7218 31.4044 45.73H31.4035C29.98 45.7335 28.5564 45.737 27.1329 45.737C26.8988 45.737 26.6648 45.737 26.4568 45.802C26.0538 45.919 25.8718 46.2309 25.9108 46.6598C25.9498 47.0627 26.1838 47.3097 26.5868 47.3746C26.7168 47.4006 26.8468 47.4006 26.9769 47.4006C28.1822 47.4006 29.3884 47.4015 30.595 47.4023H30.5962H30.5975H30.5987H30.5999H30.6011H30.6024H30.6036H30.6048H30.6074H30.6081H30.6087H30.6094H30.6101H30.6108H30.6114H30.6121C34.2409 47.4047 37.8733 47.4071 41.4984 47.3876C42.0575 47.3876 42.6425 47.2967 43.1625 47.1147C44.8786 46.5038 45.8406 44.9832 45.8406 42.9556V4.45808V4.45794C45.8406 4.30201 45.8406 4.1331 45.8276 3.97718C45.7626 2.69047 45.2426 1.59871 44.1765 0.870866C43.7972 0.606277 43.358 0.431461 42.9199 0.257071ZM8.15616 28.4694L8.1565 28.4697L8.15684 28.47L8.15763 28.4706L8.15901 28.4717L8.15981 28.4723C8.36796 28.6386 8.58079 28.8086 8.80178 28.9835C6.52669 29.8543 5.30464 31.596 4.70662 33.8055C3.73158 37.3927 4.2906 40.8239 5.94167 44.0992C7.03371 46.2697 8.55477 48.0893 10.7779 49.2071C12.2469 49.9479 13.768 50.1949 15.354 49.636C15.7311 49.506 16.0431 49.506 16.4201 49.636C18.5132 50.3378 20.3982 49.74 22.1143 48.5312C24.1164 47.1146 25.4554 45.191 26.3525 42.9425C27.6005 39.8232 27.9645 36.6259 26.9115 33.3766C25.2994 28.3987 20.6322 27.6838 17.5121 29.8803C17.3837 29.972 17.2359 30.0314 17.055 30.104L17.055 30.104C16.9794 30.1344 16.8981 30.167 16.8101 30.2053C17.1871 28.2297 17.9801 26.696 19.7612 25.8122C20.3462 25.5263 20.5542 25.0844 20.3332 24.6165C20.1122 24.1486 19.6312 24.0316 19.0332 24.3306L19.0332 24.3306C18.6692 24.5125 18.3051 24.6945 17.9931 24.9544C17.6025 25.2864 17.2265 25.6477 16.8487 26.0108C16.7236 26.131 16.5982 26.2515 16.4721 26.3711C15.094 25.0064 13.391 24.3436 11.4279 24.4865C10.5161 24.553 9.61124 24.675 8.70826 24.7967C8.37525 24.8416 8.04249 24.8864 7.70974 24.9284C7.03371 25.0064 6.52669 25.3183 6.35768 26.0072C6.18868 26.696 6.51369 27.1899 7.04671 27.5928C7.41498 27.8773 7.77786 28.1672 8.15616 28.4694ZM24.8054 32.6617C25.5854 34.0784 25.8715 35.6121 25.8455 37.9776C25.6894 40.9279 24.5584 44.2552 21.6853 46.7896C21.0353 47.3485 20.1902 47.7384 19.3712 48.0633C18.3962 48.4533 17.3951 48.2843 16.4331 47.8554C16.1601 47.7254 15.7441 47.6734 15.484 47.8034C14.002 48.5312 12.5849 48.3363 11.2069 47.5565C10.0368 46.9066 9.11379 45.9708 8.37276 44.8661C6.27968 41.7077 5.43465 38.2765 6.26668 34.5333C6.39669 33.9225 6.6567 33.3246 6.94271 32.7657C8.20376 30.3742 10.6479 29.6984 13.0139 31.0501C13.3708 31.2528 13.7479 31.415 14.1263 31.5778C14.3545 31.676 14.5831 31.7744 14.808 31.8819C14.925 31.9339 15.042 32.0899 15.055 32.2068C15.0763 32.3983 15.0744 32.5936 15.0724 32.7885C15.0708 32.9509 15.0692 33.1131 15.081 33.2726C15.12 33.7535 15.445 34.0784 15.8871 34.0914C16.3161 34.0914 16.6671 33.7795 16.7191 33.2986C16.7377 33.1361 16.7297 32.9603 16.7219 32.7873C16.7077 32.4759 16.694 32.1734 16.8361 31.9729C16.9642 31.785 17.255 31.7094 17.5538 31.6317L17.5538 31.6317C17.7098 31.5911 17.8679 31.5499 18.0061 31.492C18.2092 31.4065 18.4035 31.2859 18.5962 31.1663L18.5962 31.1662C18.6379 31.1404 18.6795 31.1145 18.7212 31.0891C20.9573 29.6854 23.5184 30.3482 24.8054 32.6617ZM12.4809 28.9835C10.9339 28.5156 9.63381 27.6318 8.34676 26.5011C9.95883 26.1242 11.4799 25.9942 13.0009 26.2671C13.872 26.4231 14.652 26.852 15.25 27.5279C15.7961 28.1387 15.6791 28.6066 14.912 28.8926C14.119 29.1915 13.287 29.2175 12.4809 28.9835ZM28.8222 4.17218H39.7297C41.0687 4.17218 41.6797 4.79604 41.6927 6.14774V13.0102C41.6927 14.3359 41.0427 14.9728 39.7167 14.9728H17.8368C16.5367 14.9728 15.8867 14.3229 15.8867 13.0362V6.06976C15.8867 4.79604 16.5237 4.15918 17.8108 4.15918C21.4769 4.17218 25.1561 4.17218 28.8222 4.17218ZM25.6631 13.2702H40.0027V5.8618C39.9531 5.85685 39.9055 5.85001 39.8597 5.84343C39.7854 5.83277 39.716 5.82281 39.6517 5.82281C36.4535 5.82281 33.2554 5.82281 30.0443 5.80982C29.7453 5.80982 29.6153 5.93979 29.4983 6.17374C28.8937 7.29152 28.2827 8.4093 27.6716 9.52709C27.0606 10.6448 26.4496 11.7625 25.8451 12.8803C25.7801 12.9972 25.7281 13.1142 25.6631 13.2702ZM17.5768 13.2572C18.6428 13.4391 18.6688 13.4261 19.1368 12.5683C20.2679 10.4888 21.3989 8.40924 22.543 6.3427C22.5814 6.27221 22.6167 6.19856 22.6536 6.12175C22.6914 6.04277 22.7309 5.96046 22.777 5.8748H17.5898C17.5768 8.34426 17.5768 10.7877 17.5768 13.2572ZM21.3441 13.3075H21.3444C22.011 13.3051 22.6381 13.3028 23.258 13.3222C23.596 13.3352 23.778 13.2182 23.934 12.9192C24.678 11.5367 25.4321 10.1592 26.1869 8.78052L26.187 8.78018L26.1879 8.77854C26.6461 7.94152 27.1046 7.10404 27.5612 6.26472C27.6014 6.19235 27.6366 6.11003 27.6761 6.01777C27.7005 5.9609 27.7264 5.90024 27.7562 5.83581C27.5001 5.83581 27.2495 5.83799 27.0024 5.84014H27.0024H27.0024H27.0023H27.0023L27.0022 5.84014C26.3964 5.84542 25.812 5.85051 25.2211 5.82281C24.8311 5.80982 24.6231 5.92679 24.4281 6.27771C23.5879 7.84556 22.7344 9.40671 21.8819 10.966L21.8812 10.9672L21.8805 10.9685L21.8798 10.9698L21.8791 10.9711L21.8784 10.9724C21.5448 11.5825 21.2113 12.1924 20.8789 12.8023C20.8139 12.9452 20.7489 13.0882 20.6449 13.3092C20.8828 13.3092 21.1148 13.3083 21.3421 13.3075H21.3425H21.3428H21.3432H21.3435H21.3438H21.3441ZM22.7369 19.1158L22.7383 19.1158C23.2246 19.1173 23.7104 19.1187 24.1948 19.1187C24.5656 19.1187 24.9356 19.1171 25.3051 19.1155H25.3052H25.3052H25.3053H25.3054H25.3055H25.3055C26.413 19.1106 27.5169 19.1057 28.628 19.1447C29.096 19.1577 29.6031 19.3137 29.9931 19.5476C30.7471 20.0155 31.0331 20.9773 30.7731 21.8221C30.5001 22.6799 29.7071 23.2908 28.745 23.2908H22.6998C22.0757 23.3038 21.7117 23.6027 21.7117 24.1226C21.7117 24.6425 22.0757 24.9544 22.6998 24.9544C23.3715 24.9544 24.0432 24.9559 24.7149 24.9573H24.7155C26.0587 24.9602 27.4019 24.9631 28.745 24.9544C30.8511 24.9414 32.5152 23.3038 32.5282 21.2372C32.5412 19.2097 30.9161 17.5071 28.836 17.4811C25.7289 17.4421 22.6348 17.4291 19.5276 17.4811C16.8235 17.5201 15.0815 20.3664 16.2385 22.7709C16.4985 23.3038 16.9145 23.4988 17.3696 23.3038C17.8376 23.1088 17.9806 22.6669 17.7726 22.1211C17.1615 20.5224 18.1106 19.1317 19.8137 19.1187C20.7848 19.11 21.7618 19.1129 22.7369 19.1158ZM37.4796 24.9575L37.4793 24.9575H37.4792H37.4791H37.4791H37.479H37.4789C37.1974 24.9604 36.9139 24.9633 36.6362 24.9546C35.2971 24.9156 34.2311 23.8628 34.2051 22.5241C34.1921 21.6793 34.1921 20.8345 34.2051 19.9897C34.2181 18.586 35.2451 17.5202 36.6362 17.4682C37.4942 17.4422 38.3522 17.4422 39.2233 17.4682C40.6273 17.5072 41.6413 18.547 41.6934 19.9767C41.7194 20.8085 41.7194 21.6273 41.6934 22.4591C41.6413 23.9278 40.5883 24.9416 39.1323 24.9546H37.8972C37.7591 24.9546 37.6196 24.956 37.4796 24.9575ZM35.8663 21.561V21.5614C35.8634 21.8314 35.8604 22.1034 35.8691 22.3812C35.8821 22.966 36.1941 23.291 36.7662 23.304C37.5462 23.3169 38.3262 23.3169 39.1063 23.304C39.6653 23.291 40.0033 23.005 40.0163 22.4461C40.0423 21.6403 40.0423 20.8215 40.0163 20.0157C40.0033 19.4828 39.6913 19.1579 39.1583 19.1449C38.3522 19.1189 37.5332 19.1189 36.7272 19.1449C36.1681 19.1579 35.8821 19.4958 35.8691 20.0547C35.8605 20.2877 35.8633 20.5322 35.8662 20.7806C35.8677 20.9062 35.8691 21.0328 35.8691 21.1594C35.8691 21.2927 35.8677 21.4259 35.8663 21.5596V21.56V21.5603V21.5606V21.561ZM34.2021 29.9044V29.9048V29.9051V29.9054V29.9058C34.2036 30.0454 34.205 30.1845 34.205 30.3222V31.544C34.231 33.0386 35.271 34.0914 36.7531 34.1174C37.5331 34.1304 38.3132 34.1304 39.0932 34.1174C40.5882 34.0914 41.6413 33.0906 41.6933 31.596C41.7193 30.7641 41.7193 29.9453 41.6933 29.1135C41.6413 27.7358 40.6402 26.683 39.3142 26.6311C38.4042 26.5921 37.4941 26.6051 36.5841 26.6311C35.258 26.683 34.231 27.7358 34.205 29.0615C34.1963 29.3393 34.1992 29.6228 34.2021 29.9044ZM35.8662 30.7242V30.7238V30.7235V30.7231C35.8676 30.5892 35.8691 30.4557 35.8691 30.3222C35.8691 30.1419 35.8659 29.9583 35.8626 29.7731V29.7729V29.7726V29.7724C35.8594 29.5842 35.8561 29.3943 35.8561 29.2045C35.8691 28.6196 36.1811 28.2947 36.7531 28.2817C37.5461 28.2687 38.3392 28.2687 39.1322 28.2817C39.6652 28.2947 39.9902 28.5936 40.0032 29.1265C40.0292 29.9583 40.0292 30.7771 40.0032 31.6089C39.9902 32.1288 39.6652 32.4278 39.1192 32.4408C38.3261 32.4538 37.5331 32.4668 36.7401 32.4408C36.1941 32.4278 35.8821 32.1028 35.8691 31.544C35.8604 31.2662 35.8633 30.9942 35.8662 30.7242ZM34.205 39.5114C34.205 39.3636 34.2035 39.2173 34.2021 39.0714C34.1992 38.7812 34.1963 38.4928 34.205 38.1987C34.244 36.86 35.297 35.8072 36.6361 35.7812C37.4681 35.7682 38.2872 35.7682 39.1192 35.7812C40.5623 35.7942 41.6153 36.782 41.6803 38.2377C41.7193 39.0955 41.7193 39.9533 41.6803 40.8241C41.6153 42.2408 40.5883 43.2416 39.1712 43.2806C38.3652 43.3066 37.5461 43.3066 36.7401 43.2806C35.258 43.2416 34.231 42.1888 34.218 40.6941C34.205 40.2912 34.205 39.9013 34.205 39.5114ZM35.8662 39.874V39.8744C35.8633 40.1444 35.8604 40.4164 35.8691 40.6941C35.8821 41.227 36.1681 41.565 36.6881 41.591C37.5201 41.6169 38.3392 41.6169 39.1712 41.591C39.6782 41.578 40.0032 41.266 40.0162 40.7591C40.0422 39.9273 40.0422 39.1085 40.0162 38.2767C40.0032 37.7438 39.6782 37.4449 39.1452 37.4319C38.3522 37.4189 37.5591 37.4189 36.7661 37.4319C36.1941 37.4449 35.8821 37.7568 35.8691 38.3547C35.8604 38.6069 35.8633 38.8592 35.8662 39.1076C35.8676 39.2303 35.8691 39.3521 35.8691 39.4724C35.8691 39.6061 35.8676 39.7398 35.8662 39.874ZM32.5528 30.8635C32.556 30.7006 32.5591 30.5375 32.5666 30.3743C32.5536 30.3743 32.5406 30.3743 32.5406 30.3613C32.5406 30.2135 32.5435 30.0672 32.5464 29.9214V29.9212C32.5521 29.631 32.5579 29.3427 32.5406 29.0486C32.4756 27.6709 31.4355 26.6441 30.0575 26.6181C29.2124 26.6051 28.3674 26.6051 27.5224 26.6181C26.8203 26.6311 26.2223 26.8781 25.7413 27.398C25.3773 27.8009 25.3513 28.2298 25.6633 28.5807C25.9883 28.9446 26.4433 28.9186 26.8853 28.6197C27.1323 28.4507 27.4573 28.3208 27.7564 28.2948C28.3692 28.2502 28.9821 28.2629 29.5949 28.2757H29.595C29.6971 28.2778 29.7993 28.2799 29.9014 28.2818C30.5515 28.2948 30.8635 28.5937 30.8765 29.2436C30.8852 29.608 30.8823 29.9782 30.8794 30.3464C30.8779 30.5298 30.8765 30.7127 30.8765 30.8942C30.8765 32.2719 30.8245 32.3239 29.4594 32.4539C29.0174 32.5058 28.6924 32.8308 28.6794 33.2467C28.6534 33.6366 28.9394 33.9875 29.3424 34.0915C30.7335 34.4294 32.2155 33.4936 32.4626 32.0769C32.5369 31.6775 32.5448 31.2715 32.5528 30.8635ZM32.5434 39.9418V39.9421C32.5463 40.2237 32.5492 40.5073 32.5405 40.785C32.4885 42.0587 31.6435 43.0335 30.3824 43.2155C29.9794 43.2675 29.5764 43.2675 29.1734 43.2415C28.6794 43.2025 28.3544 42.8256 28.3804 42.3707C28.4064 41.9288 28.7314 41.6298 29.2254 41.6038C29.3554 41.5974 29.4854 41.5974 29.6154 41.5974C29.7454 41.5974 29.8754 41.5974 30.0054 41.5909C30.5644 41.5519 30.8765 41.2529 30.8895 40.694C30.9153 39.9055 30.9026 39.1169 30.8897 38.3155L30.8895 38.3026C30.8765 37.7827 30.6034 37.5097 30.0964 37.4188C29.4724 37.3148 29.1734 36.9899 29.2254 36.47C29.2904 35.9631 29.6804 35.7031 30.3174 35.7681C31.5395 35.8851 32.5015 36.9119 32.5535 38.1986C32.5535 38.4195 32.5503 38.6405 32.547 38.8615C32.5438 39.0824 32.5405 39.3034 32.5405 39.5243C32.5405 39.6623 32.542 39.8018 32.5434 39.9418ZM8.46265 33.3637C7.78662 34.5464 7.56561 35.8461 7.47461 37.2108C7.53095 37.5401 7.58439 37.8708 7.63784 38.2015C7.74473 38.8629 7.85162 39.5243 7.98163 40.1742C8.08563 40.7331 8.52765 40.993 9.00867 40.863C9.50269 40.7331 9.7107 40.2911 9.55469 39.7063C9.54943 39.6852 9.54202 39.662 9.53422 39.6376C9.52276 39.6016 9.51042 39.563 9.50269 39.5243C9.03467 37.8867 9.09967 36.262 9.6977 34.6634C9.8667 34.1955 10.1137 33.8316 10.5817 33.6236C10.9978 33.4287 11.1538 32.9478 10.9717 32.5449C10.8027 32.1549 10.3477 31.973 9.90571 32.1289C9.26868 32.3499 8.80066 32.7788 8.46265 33.3637Z" fill="url(#paint0_linear_193_334)"/>
</g>
<defs>
<linearGradient id="paint0_linear_193_334" x1="4.22656" y1="-0.0129395" x2="57.3805" y2="21.7293" gradientUnits="userSpaceOnUse">
<stop stop-color="#AFE11E"/>
<stop offset="1" stop-color="#4DB856"/>
</linearGradient>
<clipPath id="clip0_193_334">
<rect width="50" height="50" fill="white"/>
</clipPath>
</defs>
</svg>
