<svg width="62" height="56" viewBox="0 0 62 56" fill="none" xmlns="http://www.w3.org/2000/svg">
<path d="M50 52H42V46.5V46.125V46M50 4.5H42V10M42 10H48M42 10V15V16M42 16H50M42 16V21V22M42 22H48M42 22V27V28M42 28H50M42 28V34M42 34H48M42 34V40M42 40H50M42 40V45V45.75V46M42 46H48" stroke="url(#paint0_linear_301_2)"/>
<path d="M19.991 34.694C20.8915 35.4789 21.0125 36.4979 20.9991 37.5996C20.9856 42.0336 20.9991 46.4814 20.9856 50.9155C20.9856 52.499 20.1523 53.6282 18.7814 53.9449C18.5529 54 18.311 54 18.0825 54C13.0558 54 8.04262 54 3.01595 54C1.28216 54 0.0994122 52.8158 0.0859719 51.0256C0.0725316 46.3437 0.0859719 41.6618 0.0859719 36.9799C0.0859719 36.0711 0.395099 35.2999 1.08055 34.6665C0.435419 34.0055 0.0725314 33.2344 0.099412 32.3118C0.112852 31.4029 0.48918 30.6456 1.16119 30.0121C0.529501 29.3649 0.153174 28.6213 0.139733 27.6849C0.139733 26.7486 0.529502 26.005 1.14775 25.3578C-0.236595 23.8155 -0.263476 22.5624 1.04023 20.6896C-0.370998 19.0372 -0.344118 16.4621 1.10743 14.8235C2.35738 13.4051 3.62077 12.0006 4.87071 10.5822C4.9648 10.472 5.05888 10.3481 5.19328 10.1966C4.0643 9.94877 3.79549 9.16387 3.84925 8.14486C3.88957 7.2911 3.84925 6.42357 3.86269 5.56982C3.87613 4.57835 4.44063 4 5.40833 4C8.8356 4 12.2629 4 15.6901 4C16.631 4 17.1955 4.57835 17.2089 5.5285C17.2223 6.45112 17.2089 7.3875 17.2089 8.31011C17.2089 9.45304 16.9804 9.78353 15.9052 10.2104C15.9993 10.3343 16.0799 10.4445 16.174 10.5547C17.4777 12.0281 18.7814 13.5153 20.112 14.9749C20.7034 15.6359 20.9991 16.3795 20.9856 17.2608C20.9856 17.55 20.9722 17.8529 20.9856 18.1421C21.0125 19.1198 20.7571 19.9736 19.991 20.6896C20.6227 21.3368 20.9991 22.108 20.9722 23.0306C20.9587 23.9394 20.6093 24.6968 19.9104 25.3302C20.5152 25.9912 20.9319 26.721 20.9184 27.6574C20.9184 28.5662 20.569 29.3236 19.897 29.9984C20.5421 30.618 20.9453 31.3616 20.9722 32.2842C21.0125 33.2344 20.6631 34.0055 19.991 34.694ZM10.556 52.5954C13.0424 52.5954 15.5289 52.5954 18.0153 52.5954C19.0637 52.5954 19.6013 52.0308 19.6013 50.9705C19.6013 46.3437 19.6013 41.7169 19.6013 37.0901C19.6013 36.016 19.0368 35.4789 18.0153 35.4789C13.0827 35.4789 8.1367 35.4789 3.20412 35.4789C1.99449 35.4789 1.4972 35.9884 1.4972 37.2278C1.4972 41.772 1.4972 46.3162 1.4972 50.8604C1.4972 52.0859 2.00793 52.6092 3.21756 52.6092C5.66369 52.5954 8.10982 52.5954 10.556 52.5954ZM10.5425 19.9323C13.0827 19.9323 15.6095 19.9323 18.1497 19.9323C18.983 19.9323 19.5475 19.3952 19.6013 18.5415C19.6281 18.1697 19.5878 17.7841 19.6147 17.4123C19.6416 16.8339 19.4534 16.352 19.0637 15.9251C17.4508 14.135 15.8514 12.3173 14.2386 10.5271C14.0907 10.3619 13.8219 10.238 13.6069 10.238C11.5774 10.2104 9.54793 10.2104 7.51845 10.238C7.30341 10.238 7.0346 10.3757 6.88676 10.5271C5.43521 12.0969 4.07774 13.7494 2.59931 15.2641C1.72569 16.1592 1.3628 17.1093 1.47032 18.3487C1.5644 19.3814 2.03481 19.9323 3.04284 19.9323C5.54273 19.9323 8.04262 19.9323 10.5425 19.9323ZM10.5156 33.9917C12.9886 33.9917 15.4617 34.0055 17.9212 33.978C18.2572 33.978 18.6336 33.8816 18.9158 33.7026C19.5206 33.317 19.7357 32.5734 19.5072 31.8849C19.2921 31.2101 18.7008 30.7833 17.975 30.7833C13.0558 30.7833 8.1367 30.7833 3.20412 30.7833C2.20954 30.7833 1.48376 31.4718 1.48376 32.3944C1.48376 33.3308 2.1961 33.9917 3.20412 33.9917C5.65025 33.9917 8.08294 33.9917 10.5156 33.9917ZM10.5156 24.6142C12.9618 24.6142 15.4213 24.6142 17.8675 24.6142C18.3648 24.6142 18.7949 24.504 19.1443 24.1322C19.5878 23.6502 19.7222 22.9617 19.44 22.3558C19.1309 21.6673 18.5798 21.3781 17.854 21.3781C12.9886 21.3781 8.10982 21.3781 3.24444 21.3781C2.1961 21.3781 1.47032 22.0529 1.47032 23.003C1.47032 23.9532 2.18266 24.6004 3.24444 24.6004C5.67713 24.6142 8.09638 24.6142 10.5156 24.6142ZM10.556 26.1151C8.10982 26.1151 5.65025 26.1427 3.20412 26.1014C2.29018 26.0876 1.52408 26.8449 1.53752 27.6987C1.55096 28.6351 2.23642 29.3236 3.19068 29.3236C8.09638 29.3236 12.9886 29.3236 17.8944 29.3236C18.8621 29.3236 19.5475 28.6351 19.5609 27.7125C19.5744 26.7899 18.7545 26.0738 17.9078 26.0876C15.4482 26.1427 13.0021 26.1151 10.556 26.1151ZM15.7842 5.48719C12.2763 5.48719 8.78184 5.48719 5.28736 5.48719C5.28736 6.56128 5.28736 7.60782 5.28736 8.70945C8.79528 8.70945 12.2763 8.70945 15.7842 8.70945C15.7842 7.64913 15.7842 6.58882 15.7842 5.48719Z" fill="black"/>
<path d="M19.991 34.694C20.8915 35.4789 21.0125 36.4979 20.9991 37.5996C20.9856 42.0336 20.9991 46.4814 20.9856 50.9155C20.9856 52.499 20.1523 53.6282 18.7814 53.9449C18.5529 54 18.311 54 18.0825 54C13.0558 54 8.04262 54 3.01595 54C1.28216 54 0.0994122 52.8158 0.0859719 51.0256C0.0725316 46.3437 0.0859719 41.6618 0.0859719 36.9799C0.0859719 36.0711 0.395099 35.2999 1.08055 34.6665C0.435419 34.0055 0.0725314 33.2344 0.099412 32.3118C0.112852 31.4029 0.48918 30.6456 1.16119 30.0121C0.529501 29.3649 0.153174 28.6213 0.139733 27.6849C0.139733 26.7486 0.529502 26.005 1.14775 25.3578C-0.236595 23.8155 -0.263476 22.5624 1.04023 20.6896C-0.370998 19.0372 -0.344118 16.4621 1.10743 14.8235C2.35738 13.4051 3.62077 12.0006 4.87071 10.5822C4.9648 10.472 5.05888 10.3481 5.19328 10.1966C4.0643 9.94877 3.79549 9.16387 3.84925 8.14486C3.88957 7.2911 3.84925 6.42357 3.86269 5.56982C3.87613 4.57835 4.44063 4 5.40833 4C8.8356 4 12.2629 4 15.6901 4C16.631 4 17.1955 4.57835 17.2089 5.5285C17.2223 6.45112 17.2089 7.3875 17.2089 8.31011C17.2089 9.45304 16.9804 9.78353 15.9052 10.2104C15.9993 10.3343 16.0799 10.4445 16.174 10.5547C17.4777 12.0281 18.7814 13.5153 20.112 14.9749C20.7034 15.6359 20.9991 16.3795 20.9856 17.2608C20.9856 17.55 20.9722 17.8529 20.9856 18.1421C21.0125 19.1198 20.7571 19.9736 19.991 20.6896C20.6227 21.3368 20.9991 22.108 20.9722 23.0306C20.9587 23.9394 20.6093 24.6968 19.9104 25.3302C20.5152 25.9912 20.9319 26.721 20.9184 27.6574C20.9184 28.5662 20.569 29.3236 19.897 29.9984C20.5421 30.618 20.9453 31.3616 20.9722 32.2842C21.0125 33.2344 20.6631 34.0055 19.991 34.694ZM10.556 52.5954C13.0424 52.5954 15.5289 52.5954 18.0153 52.5954C19.0637 52.5954 19.6013 52.0308 19.6013 50.9705C19.6013 46.3437 19.6013 41.7169 19.6013 37.0901C19.6013 36.016 19.0368 35.4789 18.0153 35.4789C13.0827 35.4789 8.1367 35.4789 3.20412 35.4789C1.99449 35.4789 1.4972 35.9884 1.4972 37.2278C1.4972 41.772 1.4972 46.3162 1.4972 50.8604C1.4972 52.0859 2.00793 52.6092 3.21756 52.6092C5.66369 52.5954 8.10982 52.5954 10.556 52.5954ZM10.5425 19.9323C13.0827 19.9323 15.6095 19.9323 18.1497 19.9323C18.983 19.9323 19.5475 19.3952 19.6013 18.5415C19.6281 18.1697 19.5878 17.7841 19.6147 17.4123C19.6416 16.8339 19.4534 16.352 19.0637 15.9251C17.4508 14.135 15.8514 12.3173 14.2386 10.5271C14.0907 10.3619 13.8219 10.238 13.6069 10.238C11.5774 10.2104 9.54793 10.2104 7.51845 10.238C7.30341 10.238 7.0346 10.3757 6.88676 10.5271C5.43521 12.0969 4.07774 13.7494 2.59931 15.2641C1.72569 16.1592 1.3628 17.1093 1.47032 18.3487C1.5644 19.3814 2.03481 19.9323 3.04284 19.9323C5.54273 19.9323 8.04262 19.9323 10.5425 19.9323ZM10.5156 33.9917C12.9886 33.9917 15.4617 34.0055 17.9212 33.978C18.2572 33.978 18.6336 33.8816 18.9158 33.7026C19.5206 33.317 19.7357 32.5734 19.5072 31.8849C19.2921 31.2101 18.7008 30.7833 17.975 30.7833C13.0558 30.7833 8.1367 30.7833 3.20412 30.7833C2.20954 30.7833 1.48376 31.4718 1.48376 32.3944C1.48376 33.3308 2.1961 33.9917 3.20412 33.9917C5.65025 33.9917 8.08294 33.9917 10.5156 33.9917ZM10.5156 24.6142C12.9618 24.6142 15.4213 24.6142 17.8675 24.6142C18.3648 24.6142 18.7949 24.504 19.1443 24.1322C19.5878 23.6502 19.7222 22.9617 19.44 22.3558C19.1309 21.6673 18.5798 21.3781 17.854 21.3781C12.9886 21.3781 8.10982 21.3781 3.24444 21.3781C2.1961 21.3781 1.47032 22.0529 1.47032 23.003C1.47032 23.9532 2.18266 24.6004 3.24444 24.6004C5.67713 24.6142 8.09638 24.6142 10.5156 24.6142ZM10.556 26.1151C8.10982 26.1151 5.65025 26.1427 3.20412 26.1014C2.29018 26.0876 1.52408 26.8449 1.53752 27.6987C1.55096 28.6351 2.23642 29.3236 3.19068 29.3236C8.09638 29.3236 12.9886 29.3236 17.8944 29.3236C18.8621 29.3236 19.5475 28.6351 19.5609 27.7125C19.5744 26.7899 18.7545 26.0738 17.9078 26.0876C15.4482 26.1427 13.0021 26.1151 10.556 26.1151ZM15.7842 5.48719C12.2763 5.48719 8.78184 5.48719 5.28736 5.48719C5.28736 6.56128 5.28736 7.60782 5.28736 8.70945C8.79528 8.70945 12.2763 8.70945 15.7842 8.70945C15.7842 7.64913 15.7842 6.58882 15.7842 5.48719Z" fill="url(#paint1_linear_301_2)"/>
<path d="M55.995 3.87C56.4983 3.89 56.8667 4 57.1 4.2C57.3367 4.4 57.455 4.67167 57.455 5.015C57.455 5.16833 57.4283 5.31 57.375 5.44C57.325 5.57 57.2467 5.68167 57.14 5.775C57.0367 5.86833 56.905 5.94167 56.745 5.995C56.585 6.04833 56.395 6.075 56.175 6.075C56.0883 6.075 56 6.06833 55.91 6.055C55.82 6.04167 55.7367 6.025 55.66 6.005C55.5833 5.985 55.515 5.965 55.455 5.945C55.395 5.925 55.3517 5.90833 55.325 5.895L55.415 5.49C55.4717 5.51667 55.5633 5.55167 55.69 5.595C55.82 5.63833 55.9783 5.66 56.165 5.66C56.315 5.66 56.44 5.64333 56.54 5.61C56.6433 5.57667 56.7267 5.53167 56.79 5.475C56.8533 5.41833 56.8983 5.35333 56.925 5.28C56.955 5.20333 56.97 5.12333 56.97 5.04C56.97 4.91333 56.9483 4.80167 56.905 4.705C56.8617 4.605 56.785 4.52167 56.675 4.455C56.565 4.38833 56.4183 4.33833 56.235 4.305C56.0517 4.26833 55.82 4.25 55.54 4.25C55.56 4.08667 55.575 3.93333 55.585 3.79C55.5983 3.64667 55.61 3.50667 55.62 3.37C55.63 3.23333 55.6383 3.09833 55.645 2.965C55.6517 2.82833 55.6583 2.685 55.665 2.535H57.335V2.93H56.07C56.0667 2.98 56.0617 3.04833 56.055 3.135C56.0483 3.21833 56.0417 3.30667 56.035 3.4C56.0283 3.49 56.0217 3.57833 56.015 3.665C56.0083 3.75167 56.0017 3.82 55.995 3.87ZM59.4373 2.95C59.4306 3.13667 59.4239 3.31833 59.4173 3.495C59.4106 3.66833 59.4006 3.83833 59.3873 4.005C59.3739 4.16833 59.3539 4.32833 59.3273 4.485C59.3006 4.64167 59.2639 4.795 59.2173 4.945C59.1706 5.095 59.1123 5.23667 59.0423 5.37C58.9756 5.5 58.8906 5.615 58.7873 5.715C58.6873 5.81167 58.5673 5.89 58.4273 5.95C58.2906 6.01 58.1289 6.04333 57.9423 6.05L57.8873 5.63C58.1206 5.60333 58.3006 5.53 58.4273 5.41C58.5573 5.29 58.6639 5.10667 58.7473 4.86C58.8406 4.58 58.8989 4.24333 58.9223 3.85C58.9489 3.45333 58.9623 3.015 58.9623 2.535H60.9273V6H60.4423V2.95H59.4373Z" fill="#4E4E4E"/>
<path d="M55.25 52.265C55.25 51.685 55.3517 51.2383 55.555 50.925C55.7617 50.6117 56.0467 50.455 56.41 50.455C56.7733 50.455 57.0567 50.6117 57.26 50.925C57.4667 51.2383 57.57 51.685 57.57 52.265C57.57 52.845 57.4667 53.2917 57.26 53.605C57.0567 53.9183 56.7733 54.075 56.41 54.075C56.0467 54.075 55.7617 53.9183 55.555 53.605C55.3517 53.2917 55.25 52.845 55.25 52.265ZM57.08 52.265C57.08 52.075 57.0683 51.895 57.045 51.725C57.025 51.555 56.9883 51.4067 56.935 51.28C56.885 51.1533 56.8167 51.0533 56.73 50.98C56.6433 50.9033 56.5367 50.865 56.41 50.865C56.2833 50.865 56.1767 50.9033 56.09 50.98C56.0033 51.0533 55.9333 51.1533 55.88 51.28C55.83 51.4067 55.7933 51.555 55.77 51.725C55.75 51.895 55.74 52.075 55.74 52.265C55.74 52.455 55.75 52.635 55.77 52.805C55.7933 52.975 55.83 53.1233 55.88 53.25C55.9333 53.3767 56.0033 53.4783 56.09 53.555C56.1767 53.6283 56.2833 53.665 56.41 53.665C56.5367 53.665 56.6433 53.6283 56.73 53.555C56.8167 53.4783 56.885 53.3767 56.935 53.25C56.9883 53.1233 57.025 52.975 57.045 52.805C57.0683 52.635 57.08 52.455 57.08 52.265ZM59.4373 50.95C59.4306 51.1367 59.4239 51.3183 59.4173 51.495C59.4106 51.6683 59.4006 51.8383 59.3873 52.005C59.3739 52.1683 59.3539 52.3283 59.3273 52.485C59.3006 52.6417 59.2639 52.795 59.2173 52.945C59.1706 53.095 59.1123 53.2367 59.0423 53.37C58.9756 53.5 58.8906 53.615 58.7873 53.715C58.6873 53.8117 58.5673 53.89 58.4273 53.95C58.2906 54.01 58.1289 54.0433 57.9423 54.05L57.8873 53.63C58.1206 53.6033 58.3006 53.53 58.4273 53.41C58.5573 53.29 58.6639 53.1067 58.7473 52.86C58.8406 52.58 58.8989 52.2433 58.9223 51.85C58.9489 51.4533 58.9623 51.015 58.9623 50.535H60.9273V54H60.4423V50.95H59.4373Z" fill="#4E4E4E"/>
<defs>
<linearGradient id="paint0_linear_301_2" x1="42" y1="4.5" x2="42" y2="52" gradientUnits="userSpaceOnUse">
<stop stop-color="#AFE11E"/>
<stop offset="0.563134" stop-color="#AFE11E"/>
<stop offset="0.568021" stop-color="#4DB856" stop-opacity="0.32"/>
<stop offset="0.994547" stop-color="#4DB856" stop-opacity="0.32"/>
</linearGradient>
<linearGradient id="paint1_linear_301_2" x1="0" y1="4" x2="30.0341" y2="10.1939" gradientUnits="userSpaceOnUse">
<stop stop-color="#AFE11E"/>
<stop offset="1" stop-color="#4DB856"/>
</linearGradient>
</defs>
</svg>
