<svg width="148" height="148" viewBox="0 0 148 148" fill="none" xmlns="http://www.w3.org/2000/svg">
<path d="M115.316 98.6833C109.15 98.6833 102.983 98.6833 96.8164 98.6833C88.1831 98.6833 80.7831 92.5167 78.9331 83.8833C76.4664 72.7833 85.0997 61.6833 96.1997 61.6833C107.3 61.6833 118.4 61.6833 128.883 61.6833C131.35 61.6833 133.816 63.5333 133.816 66.6167C133.816 75.8667 133.816 85.1167 133.816 94.3667C133.816 97.45 131.966 99.3 128.883 99.3C127.65 99.3 125.8 99.3 124.566 99.3C124.566 100.533 124.566 101.15 124.566 102.383C124.566 106.7 124.566 111.633 123.95 115.95C123.333 122.733 117.166 127.05 111 127.667C108.533 127.667 105.45 127.667 102.983 127.667C80.7831 127.667 59.1997 127.667 36.9997 127.667C25.8997 127.667 16.0331 120.267 14.1831 109.167C13.5664 107.933 13.5664 106.083 13.5664 104.85C13.5664 82.0333 13.5664 58.6 13.5664 35.7833C13.5664 20.9833 24.0497 10.5 36.9997 10.5C40.0831 10.5 43.1664 10.5 45.6331 10.5C48.7164 10.5 50.5664 12.35 50.5664 14.8167C50.5664 17.2833 48.7164 19.75 45.6331 19.75C41.9331 19.75 38.2331 19.75 34.5331 19.75C28.3664 20.9833 23.4331 27.15 22.8164 33.3167C22.8164 56.75 22.8164 80.1833 22.8164 103C22.8164 110.4 28.9831 116.567 36.9997 116.567C59.8164 116.567 82.6331 116.567 105.45 116.567C107.3 116.567 109.15 116.567 111 116.567C113.466 116.567 115.316 114.717 115.316 112.25C115.933 107.933 115.316 103.617 115.316 98.6833ZM124.566 70.9333C114.7 70.9333 105.45 70.9333 96.1997 70.9333C93.7331 70.9333 91.2664 72.1667 90.0331 74.0167C87.5664 77.1 86.9497 80.1833 88.7997 83.8833C90.6497 87.5833 93.1164 89.4333 97.4331 89.4333C106.066 89.4333 115.316 89.4333 123.95 89.4333C124.566 89.4333 124.566 89.4333 125.183 89.4333C124.566 83.2667 124.566 77.1 124.566 70.9333Z" fill="black"/>
<path d="M115.316 98.6833C109.15 98.6833 102.983 98.6833 96.8164 98.6833C88.1831 98.6833 80.7831 92.5167 78.9331 83.8833C76.4664 72.7833 85.0997 61.6833 96.1997 61.6833C107.3 61.6833 118.4 61.6833 128.883 61.6833C131.35 61.6833 133.816 63.5333 133.816 66.6167C133.816 75.8667 133.816 85.1167 133.816 94.3667C133.816 97.45 131.966 99.3 128.883 99.3C127.65 99.3 125.8 99.3 124.566 99.3C124.566 100.533 124.566 101.15 124.566 102.383C124.566 106.7 124.566 111.633 123.95 115.95C123.333 122.733 117.166 127.05 111 127.667C108.533 127.667 105.45 127.667 102.983 127.667C80.7831 127.667 59.1997 127.667 36.9997 127.667C25.8997 127.667 16.0331 120.267 14.1831 109.167C13.5664 107.933 13.5664 106.083 13.5664 104.85C13.5664 82.0333 13.5664 58.6 13.5664 35.7833C13.5664 20.9833 24.0497 10.5 36.9997 10.5C40.0831 10.5 43.1664 10.5 45.6331 10.5C48.7164 10.5 50.5664 12.35 50.5664 14.8167C50.5664 17.2833 48.7164 19.75 45.6331 19.75C41.9331 19.75 38.2331 19.75 34.5331 19.75C28.3664 20.9833 23.4331 27.15 22.8164 33.3167C22.8164 56.75 22.8164 80.1833 22.8164 103C22.8164 110.4 28.9831 116.567 36.9997 116.567C59.8164 116.567 82.6331 116.567 105.45 116.567C107.3 116.567 109.15 116.567 111 116.567C113.466 116.567 115.316 114.717 115.316 112.25C115.933 107.933 115.316 103.617 115.316 98.6833ZM124.566 70.9333C114.7 70.9333 105.45 70.9333 96.1997 70.9333C93.7331 70.9333 91.2664 72.1667 90.0331 74.0167C87.5664 77.1 86.9497 80.1833 88.7997 83.8833C90.6497 87.5833 93.1164 89.4333 97.4331 89.4333C106.066 89.4333 115.316 89.4333 123.95 89.4333C124.566 89.4333 124.566 89.4333 125.183 89.4333C124.566 83.2667 124.566 77.1 124.566 70.9333Z" fill="#E1F6E2"/>
<path d="M74.0002 38.2499C61.6669 38.2499 49.9502 38.2499 37.6169 38.2499C35.1502 38.2499 33.3002 37.0166 32.6836 35.1666C31.4502 32.6999 32.6836 30.2332 35.7669 28.9999C39.4669 27.7666 43.1669 26.5332 46.8669 25.2999C62.9002 19.1332 78.3169 12.9666 94.3502 6.79991C98.0502 5.56657 100.517 6.18324 101.75 9.88324C104.217 16.0499 106.684 21.5999 109.15 27.7666C109.15 28.9999 109.767 28.9999 111 28.9999C119.017 28.9999 125.184 35.1666 125.184 43.1832C125.184 44.4166 125.184 46.2666 125.184 47.4999C125.184 49.9666 123.334 51.8166 120.25 51.8166C117.784 51.8166 115.934 49.9666 115.934 47.4999C115.934 46.2666 115.934 45.0332 115.934 43.7999C115.934 40.0999 114.084 38.2499 110.384 38.2499C98.0502 38.2499 85.7169 38.2499 74.0002 38.2499ZM94.3502 16.6666C83.8669 20.9832 73.3836 24.6832 62.2836 28.9999C74.6169 28.9999 86.9502 28.9999 99.2836 28.9999C98.0502 25.2999 96.2002 20.9832 94.3502 16.6666Z" fill="black"/>
<path d="M74.0002 38.2499C61.6669 38.2499 49.9502 38.2499 37.6169 38.2499C35.1502 38.2499 33.3002 37.0166 32.6836 35.1666C31.4502 32.6999 32.6836 30.2332 35.7669 28.9999C39.4669 27.7666 43.1669 26.5332 46.8669 25.2999C62.9002 19.1332 78.3169 12.9666 94.3502 6.79991C98.0502 5.56657 100.517 6.18324 101.75 9.88324C104.217 16.0499 106.684 21.5999 109.15 27.7666C109.15 28.9999 109.767 28.9999 111 28.9999C119.017 28.9999 125.184 35.1666 125.184 43.1832C125.184 44.4166 125.184 46.2666 125.184 47.4999C125.184 49.9666 123.334 51.8166 120.25 51.8166C117.784 51.8166 115.934 49.9666 115.934 47.4999C115.934 46.2666 115.934 45.0332 115.934 43.7999C115.934 40.0999 114.084 38.2499 110.384 38.2499C98.0502 38.2499 85.7169 38.2499 74.0002 38.2499ZM94.3502 16.6666C83.8669 20.9832 73.3836 24.6832 62.2836 28.9999C74.6169 28.9999 86.9502 28.9999 99.2836 28.9999C98.0502 25.2999 96.2002 20.9832 94.3502 16.6666Z" fill="#E1F6E2"/>
</svg>
