<svg width="148" height="148" viewBox="0 0 148 148" fill="none" xmlns="http://www.w3.org/2000/svg">
<path d="M0 70.1301C0.469097 67.3155 0.703645 64.7355 1.40729 61.9209C4.22187 49.2553 10.5547 38.7006 19.9366 29.7878C31.664 18.764 45.5024 12.4312 61.2171 10.0857C81.3883 7.03657 100.152 10.5548 117.274 21.5786C130.878 30.2569 140.729 42.2188 145.185 57.9336C151.049 78.5738 146.124 96.8686 132.285 113.052C120.089 127.125 104.374 134.865 86.3138 137.68C70.3645 140.26 54.8843 138.149 40.1078 131.582C39.1696 131.113 38.4659 131.347 37.5277 131.816C32.6022 135.1 27.4422 137.445 21.5784 138.384C18.0602 138.853 14.542 138.853 11.2583 137.915C8.67829 137.211 6.33281 136.273 3.98732 135.569C5.86371 133.458 7.97464 131.582 9.85103 129.705C13.3693 125.718 15.2456 121.027 15.9493 115.867C15.9493 114.929 15.7147 113.991 15.0111 113.287C9.38193 106.954 5.16006 99.6832 2.81458 91.7085C1.64184 87.4867 1.17274 83.0302 0.234548 78.8084C0.234548 78.3393 0 77.8702 0 77.1665C0 74.5865 0 72.241 0 70.1301ZM18.5293 131.113C19.7021 130.878 21.1094 130.878 22.2821 130.644C27.9113 129.471 32.6022 126.656 37.0586 123.138C37.7623 122.434 38.4659 122.434 39.4041 122.903C52.5388 129.705 66.6117 132.285 81.3883 130.878C100.152 129.002 116.101 121.262 128.298 106.72C135.569 97.8068 139.556 87.7212 140.26 76.2283C140.729 64.2664 137.211 53.2426 130.174 43.6261C119.385 29.0841 104.374 20.8749 86.7829 17.8258C69.4263 14.7767 53.2425 17.3567 37.9968 25.8004C27.2076 31.8987 18.5293 40.1079 12.9002 51.3662C6.56735 64.0318 5.86371 76.932 10.3201 90.3012C12.9002 97.8068 17.122 104.374 22.5166 110.238C22.9857 110.707 23.2203 111.176 23.2203 111.645C22.9857 114.929 22.9857 118.447 22.0475 121.731C21.5784 124.78 19.9366 127.829 18.5293 131.113Z" fill="black"/>
<path d="M0 70.1301C0.469097 67.3155 0.703645 64.7355 1.40729 61.9209C4.22187 49.2553 10.5547 38.7006 19.9366 29.7878C31.664 18.764 45.5024 12.4312 61.2171 10.0857C81.3883 7.03657 100.152 10.5548 117.274 21.5786C130.878 30.2569 140.729 42.2188 145.185 57.9336C151.049 78.5738 146.124 96.8686 132.285 113.052C120.089 127.125 104.374 134.865 86.3138 137.68C70.3645 140.26 54.8843 138.149 40.1078 131.582C39.1696 131.113 38.4659 131.347 37.5277 131.816C32.6022 135.1 27.4422 137.445 21.5784 138.384C18.0602 138.853 14.542 138.853 11.2583 137.915C8.67829 137.211 6.33281 136.273 3.98732 135.569C5.86371 133.458 7.97464 131.582 9.85103 129.705C13.3693 125.718 15.2456 121.027 15.9493 115.867C15.9493 114.929 15.7147 113.991 15.0111 113.287C9.38193 106.954 5.16006 99.6832 2.81458 91.7085C1.64184 87.4867 1.17274 83.0302 0.234548 78.8084C0.234548 78.3393 0 77.8702 0 77.1665C0 74.5865 0 72.241 0 70.1301ZM18.5293 131.113C19.7021 130.878 21.1094 130.878 22.2821 130.644C27.9113 129.471 32.6022 126.656 37.0586 123.138C37.7623 122.434 38.4659 122.434 39.4041 122.903C52.5388 129.705 66.6117 132.285 81.3883 130.878C100.152 129.002 116.101 121.262 128.298 106.72C135.569 97.8068 139.556 87.7212 140.26 76.2283C140.729 64.2664 137.211 53.2426 130.174 43.6261C119.385 29.0841 104.374 20.8749 86.7829 17.8258C69.4263 14.7767 53.2425 17.3567 37.9968 25.8004C27.2076 31.8987 18.5293 40.1079 12.9002 51.3662C6.56735 64.0318 5.86371 76.932 10.3201 90.3012C12.9002 97.8068 17.122 104.374 22.5166 110.238C22.9857 110.707 23.2203 111.176 23.2203 111.645C22.9857 114.929 22.9857 118.447 22.0475 121.731C21.5784 124.78 19.9366 127.829 18.5293 131.113Z" fill="#E1F6E2"/>
<path d="M79.98 68.0192C79.0418 69.6611 77.8691 71.3029 76.9309 73.1793C75.7582 75.0557 74.5854 76.9321 73.4127 78.8085C72.4745 80.4503 70.3636 80.4503 69.4254 78.8085C67.549 75.7593 65.6726 72.7102 64.0308 69.4265C63.7962 68.9574 63.5617 68.7229 63.0926 68.2538C63.0926 68.7229 63.0926 69.192 63.0926 69.6611C63.0926 75.9939 63.0926 82.0921 63.0926 88.4249C63.0926 90.7704 62.858 91.005 60.5125 91.005C56.7598 91.005 56.7598 91.005 56.7598 87.2522C56.7598 78.3394 56.7598 69.192 56.7598 60.2791C56.7598 57.6991 56.9943 57.4646 59.5743 57.23C61.9198 56.9955 63.5617 57.9337 64.7344 60.0446C66.6108 63.5628 68.9563 66.8465 71.0672 70.1302C71.3018 70.5993 71.5363 70.8338 72.0054 71.3029C72.7091 70.3647 73.1781 69.4265 73.6472 68.7229C75.2891 65.9083 77.4 63.3283 78.8073 60.5137C80.2146 57.4646 82.5601 56.9955 85.6092 57.4646C86.3129 57.4646 86.7819 57.9337 86.7819 58.6373C86.7819 59.1064 86.7819 59.81 87.0165 60.2791C87.0165 69.6611 87.0165 79.043 87.0165 88.4249C87.0165 90.7704 86.7819 91.005 84.4365 91.005C80.6837 91.005 80.6837 91.005 80.6837 87.2522C80.6837 80.9194 80.6837 74.5866 80.6837 68.0192C80.2146 68.2538 80.2146 68.0192 79.98 68.0192Z" fill="black"/>
<path d="M79.98 68.0192C79.0418 69.6611 77.8691 71.3029 76.9309 73.1793C75.7582 75.0557 74.5854 76.9321 73.4127 78.8085C72.4745 80.4503 70.3636 80.4503 69.4254 78.8085C67.549 75.7593 65.6726 72.7102 64.0308 69.4265C63.7962 68.9574 63.5617 68.7229 63.0926 68.2538C63.0926 68.7229 63.0926 69.192 63.0926 69.6611C63.0926 75.9939 63.0926 82.0921 63.0926 88.4249C63.0926 90.7704 62.858 91.005 60.5125 91.005C56.7598 91.005 56.7598 91.005 56.7598 87.2522C56.7598 78.3394 56.7598 69.192 56.7598 60.2791C56.7598 57.6991 56.9943 57.4646 59.5743 57.23C61.9198 56.9955 63.5617 57.9337 64.7344 60.0446C66.6108 63.5628 68.9563 66.8465 71.0672 70.1302C71.3018 70.5993 71.5363 70.8338 72.0054 71.3029C72.7091 70.3647 73.1781 69.4265 73.6472 68.7229C75.2891 65.9083 77.4 63.3283 78.8073 60.5137C80.2146 57.4646 82.5601 56.9955 85.6092 57.4646C86.3129 57.4646 86.7819 57.9337 86.7819 58.6373C86.7819 59.1064 86.7819 59.81 87.0165 60.2791C87.0165 69.6611 87.0165 79.043 87.0165 88.4249C87.0165 90.7704 86.7819 91.005 84.4365 91.005C80.6837 91.005 80.6837 91.005 80.6837 87.2522C80.6837 80.9194 80.6837 74.5866 80.6837 68.0192C80.2146 68.2538 80.2146 68.0192 79.98 68.0192Z" fill="#E1F6E2"/>
<path d="M41.7497 56.5264C44.0952 56.7609 46.2061 57.23 48.3171 57.4646C49.2553 57.6991 49.7244 58.1682 49.4898 59.1064C49.4898 59.3409 49.4898 59.81 49.2553 60.0446C48.7862 62.8592 48.3171 62.8592 45.5025 62.6246C43.157 62.3901 40.8115 62.1555 38.4661 62.3901C36.5897 62.3901 35.4169 63.5628 35.1824 64.9701C35.1824 66.6119 35.6515 68.0192 37.5279 68.9574C39.4042 69.8956 41.2806 70.5993 43.157 71.5375C44.5643 72.2411 45.9716 72.9447 47.1443 73.8829C51.6008 77.1666 52.539 83.4994 49.0207 87.7213C47.3789 89.5977 45.268 90.5359 42.9225 91.005C38.4661 91.7086 34.0096 91.7086 29.5532 90.3013C27.4423 89.5977 27.4423 89.5977 27.6768 87.2522C27.6768 87.0176 27.6768 86.5485 27.9114 86.314C28.615 83.9685 28.615 83.9685 30.9605 84.6722C34.4787 85.8449 37.997 86.0795 41.7497 84.9067C43.157 84.4376 44.0952 83.734 44.3298 82.3267C44.5643 80.6848 44.0952 79.2776 42.6879 78.5739C40.3424 77.1666 37.7624 76.2284 35.4169 75.0557C34.0096 74.352 32.6023 73.4138 31.4296 72.4757C26.2695 67.5501 28.615 59.3409 35.6515 57.6991C37.5279 56.7609 39.6388 56.7609 41.7497 56.5264Z" fill="black"/>
<path d="M41.7497 56.5264C44.0952 56.7609 46.2061 57.23 48.3171 57.4646C49.2553 57.6991 49.7244 58.1682 49.4898 59.1064C49.4898 59.3409 49.4898 59.81 49.2553 60.0446C48.7862 62.8592 48.3171 62.8592 45.5025 62.6246C43.157 62.3901 40.8115 62.1555 38.4661 62.3901C36.5897 62.3901 35.4169 63.5628 35.1824 64.9701C35.1824 66.6119 35.6515 68.0192 37.5279 68.9574C39.4042 69.8956 41.2806 70.5993 43.157 71.5375C44.5643 72.2411 45.9716 72.9447 47.1443 73.8829C51.6008 77.1666 52.539 83.4994 49.0207 87.7213C47.3789 89.5977 45.268 90.5359 42.9225 91.005C38.4661 91.7086 34.0096 91.7086 29.5532 90.3013C27.4423 89.5977 27.4423 89.5977 27.6768 87.2522C27.6768 87.0176 27.6768 86.5485 27.9114 86.314C28.615 83.9685 28.615 83.9685 30.9605 84.6722C34.4787 85.8449 37.997 86.0795 41.7497 84.9067C43.157 84.4376 44.0952 83.734 44.3298 82.3267C44.5643 80.6848 44.0952 79.2776 42.6879 78.5739C40.3424 77.1666 37.7624 76.2284 35.4169 75.0557C34.0096 74.352 32.6023 73.4138 31.4296 72.4757C26.2695 67.5501 28.615 59.3409 35.6515 57.6991C37.5279 56.7609 39.6388 56.7609 41.7497 56.5264Z" fill="#E1F6E2"/>
<path d="M106.719 56.5264C108.83 56.7609 111.176 57.23 113.287 57.4646C114.225 57.6991 114.694 58.1682 114.459 59.1064C114.459 59.5755 114.459 60.0446 114.225 60.2791C113.756 62.8592 113.287 63.0937 110.707 62.6246C108.361 62.3901 105.781 62.1555 103.436 62.3901C101.559 62.3901 100.386 63.5628 100.152 64.9701C99.9174 66.6119 100.386 68.0192 102.263 68.9574C103.905 69.8956 105.781 70.5993 107.423 71.3029C109.065 72.0066 110.472 72.9447 111.879 73.8829C116.336 77.1666 117.274 83.4994 113.756 87.7213C112.114 89.5977 110.003 90.5359 107.657 91.005C103.201 91.7086 98.7446 91.7086 94.5228 90.3013C92.4118 89.5977 92.1773 89.3631 92.6464 87.0176V86.7831C93.35 83.9685 93.35 83.9685 96.1646 84.6722C99.6828 85.8449 102.966 85.8449 106.485 84.9067C107.892 84.4376 109.065 83.734 109.299 82.0921C109.534 80.4503 109.065 79.043 107.657 78.3394C105.312 76.9321 102.732 75.9939 100.386 74.8211C98.2755 73.8829 96.6337 72.7102 95.2264 70.5993C91.9427 65.2047 94.5228 58.8718 100.856 57.23C102.497 56.7609 104.608 56.7609 106.719 56.5264Z" fill="black"/>
<path d="M106.719 56.5264C108.83 56.7609 111.176 57.23 113.287 57.4646C114.225 57.6991 114.694 58.1682 114.459 59.1064C114.459 59.5755 114.459 60.0446 114.225 60.2791C113.756 62.8592 113.287 63.0937 110.707 62.6246C108.361 62.3901 105.781 62.1555 103.436 62.3901C101.559 62.3901 100.386 63.5628 100.152 64.9701C99.9174 66.6119 100.386 68.0192 102.263 68.9574C103.905 69.8956 105.781 70.5993 107.423 71.3029C109.065 72.0066 110.472 72.9447 111.879 73.8829C116.336 77.1666 117.274 83.4994 113.756 87.7213C112.114 89.5977 110.003 90.5359 107.657 91.005C103.201 91.7086 98.7446 91.7086 94.5228 90.3013C92.4118 89.5977 92.1773 89.3631 92.6464 87.0176V86.7831C93.35 83.9685 93.35 83.9685 96.1646 84.6722C99.6828 85.8449 102.966 85.8449 106.485 84.9067C107.892 84.4376 109.065 83.734 109.299 82.0921C109.534 80.4503 109.065 79.043 107.657 78.3394C105.312 76.9321 102.732 75.9939 100.386 74.8211C98.2755 73.8829 96.6337 72.7102 95.2264 70.5993C91.9427 65.2047 94.5228 58.8718 100.856 57.23C102.497 56.7609 104.608 56.7609 106.719 56.5264Z" fill="#E1F6E2"/>
</svg>
