<svg width="252" height="77" viewBox="0 0 252 77" fill="none" xmlns="http://www.w3.org/2000/svg">
<path d="M1 75C1 75 46.0072 55.4166 76.5929 54.1179C99.5234 53.1444 112 63.2061 134.893 61.5758C174.446 58.7593 188.242 23.3481 227.779 20.3089C236.821 19.6139 251 20.3089 251 20.3089" stroke="black" stroke-width="4"/>
<path d="M1 75C1 75 46.0072 55.4166 76.5929 54.1179C99.5234 53.1444 112 63.2061 134.893 61.5758C174.446 58.7593 188.242 23.3481 227.779 20.3089C236.821 19.6139 251 20.3089 251 20.3089" stroke="url(#paint0_linear_190_236)" stroke-width="4"/>
<g filter="url(#filter0_d_190_236)">
<circle cx="223" cy="20" r="10" fill="white"/>
<circle cx="223" cy="20" r="9.5" stroke="url(#paint1_linear_190_236)"/>
</g>
<defs>
<filter id="filter0_d_190_236" x="203" y="0" width="44" height="44" filterUnits="userSpaceOnUse" color-interpolation-filters="sRGB">
<feFlood flood-opacity="0" result="BackgroundImageFix"/>
<feColorMatrix in="SourceAlpha" type="matrix" values="0 0 0 0 0 0 0 0 0 0 0 0 0 0 0 0 0 0 127 0" result="hardAlpha"/>
<feOffset dx="2" dy="2"/>
<feGaussianBlur stdDeviation="6"/>
<feComposite in2="hardAlpha" operator="out"/>
<feColorMatrix type="matrix" values="0 0 0 0 0 0 0 0 0 0 0 0 0 0 0 0 0 0 0.12 0"/>
<feBlend mode="normal" in2="BackgroundImageFix" result="effect1_dropShadow_190_236"/>
<feBlend mode="normal" in="SourceGraphic" in2="effect1_dropShadow_190_236" result="shape"/>
</filter>
<linearGradient id="paint0_linear_190_236" x1="1" y1="20" x2="63.3184" y2="159.09" gradientUnits="userSpaceOnUse">
<stop stop-color="#AFE11E"/>
<stop offset="1" stop-color="#4DB856"/>
</linearGradient>
<linearGradient id="paint1_linear_190_236" x1="213" y1="10" x2="237.027" y2="21.798" gradientUnits="userSpaceOnUse">
<stop stop-color="#AFE11E"/>
<stop offset="1" stop-color="#4DB856"/>
</linearGradient>
</defs>
</svg>
