<svg width="304" height="324" viewBox="0 0 304 324" fill="none" xmlns="http://www.w3.org/2000/svg">
<path d="M162.049 178.939C163.083 179.177 164.103 178.524 164.335 177.488C165.631 171.685 166.28 165.621 166.28 159.297C166.28 157.39 166.121 155.641 166.121 153.733C165.169 139.743 160.885 126.707 153.904 115.419C149.461 108.106 143.908 101.588 137.403 96.1825C127.779 87.962 116.429 81.785 103.821 78.5896C103.679 78.5537 103.543 78.5 103.405 78.4505C103.098 78.34 102.642 78.2443 102.096 78.2225C101.941 78.2163 101.786 78.1996 101.634 78.1642C95.6771 76.7711 89.5632 76.1511 83.1399 76.1511C53.3111 76.1511 27.1315 92.0491 12.3758 115.737C5.39457 127.025 0.951983 140.061 0.158664 154.051C0.158664 155.641 0 157.39 0 159.297C0 170.903 2.37996 182.031 6.66388 192.047C12.8518 206.355 22.8476 218.597 35.382 227.5C44.44 233.853 56.6582 238.623 67.3895 240.851C68.3329 241.047 69.0188 241.87 69.0188 242.834V267.47C69.0188 268.575 68.1234 269.47 67.0188 269.47H45.8539C43.9499 269.47 42.5219 271.06 42.5219 272.809V291.409C42.5219 293.317 44.1086 294.748 45.8539 294.748H67.1775C68.282 294.748 69.1774 295.643 69.1774 296.748V320.343C69.1774 322.251 70.7641 323.682 72.5094 323.682H93.6117C95.5157 323.682 96.9436 322.092 96.9436 320.343V296.748C96.9436 295.643 97.8391 294.748 98.9436 294.748H120.267C122.171 294.748 123.599 293.158 123.599 291.409V272.809C123.599 270.901 122.013 269.47 120.267 269.47H99.1023C97.9977 269.47 97.1023 268.575 97.1023 267.47V242.829C97.1023 241.868 97.7852 241.045 98.7262 240.848C109.346 238.618 121.844 233.85 130.898 227.5C135.467 224.268 139.694 220.694 143.484 216.682C144.463 215.646 144.007 213.964 142.668 213.474C135.128 210.717 127.992 207.135 122.489 203.176C121.826 202.701 121.164 202.227 120.501 201.719C119.713 201.115 118.604 201.119 117.835 201.747C108.35 209.505 96.3306 214.145 83.2985 214.145C65.8455 214.145 50.2964 206.037 40.3006 193.319C32.8434 183.939 28.4008 172.016 28.4008 159.138C28.4008 157.231 28.5595 155.323 28.7182 153.415C30.4635 136.881 39.5073 122.414 52.5177 113.67C61.2443 107.788 71.8747 104.29 83.2985 104.29C84.8852 104.29 86.3131 104.449 87.7411 104.449C97.4196 105.244 106.305 108.583 113.921 113.67C117.57 116.055 120.743 118.917 123.599 122.096C123.758 122.255 123.916 122.573 124.075 122.732C131.532 131.158 136.451 141.81 137.562 153.415C137.72 155.323 137.879 157.231 137.879 159.138C137.879 160.877 137.767 162.503 137.637 164.111C137.59 164.689 137.793 165.261 138.205 165.668C144.93 172.323 153.076 176.866 162.049 178.939Z" fill="#E1F6E2"/>
<path d="M228 0C225.938 0 224.351 1.58979 224.351 3.65653V23.8469C224.351 25.9136 225.938 27.5034 228 27.5034H252.214C253.995 27.5034 254.888 29.6557 253.63 30.9162L241.487 43.0834L222.858 61.7489C222.164 62.4443 221.07 62.5305 220.262 61.9715C206.872 52.7088 190.58 47.2169 173.103 47.2169C149.602 47.2169 128.275 57.0884 113.136 72.8085C112.138 73.8446 112.587 75.5491 113.935 76.0494C121.836 78.9804 129.16 82.943 135.812 88.0328C136.561 88.606 137.606 88.6002 138.338 88.0045C139.666 86.9226 140.994 85.8628 142.322 84.895C151.048 79.0128 161.679 75.5152 173.103 75.5152C184.527 75.5152 194.998 79.0128 203.884 84.895C216.894 93.7978 226.097 108.106 227.683 124.64C227.842 126.548 228 128.455 228 130.363C228 143.24 223.558 155.164 216.101 164.544C206.105 177.262 190.556 185.37 173.103 185.37C155.65 185.37 140.101 177.262 130.105 164.544C122.648 155.164 118.205 143.24 118.205 130.363C118.205 128.455 118.364 126.548 118.522 124.64V124.64C118.522 124.538 118.482 124.44 118.41 124.368C116.063 122.026 113.561 119.84 110.907 117.963C105.878 114.508 100.199 112.096 94.223 110.726C93.1768 110.487 92.1484 111.157 91.9231 112.206C91.0326 116.356 90.3973 120.537 90.1216 124.958C89.9629 126.707 89.9629 128.614 89.9629 130.522C89.9629 142.128 92.3428 153.256 96.6268 163.272C102.815 177.58 112.81 189.821 125.345 198.724C134.865 205.401 147.875 210.33 158.982 212.396C163.424 213.191 166.915 213.509 171.675 213.668C177.329 213.826 181.895 213.204 186.911 212.421C187.013 212.405 187.118 212.401 187.22 212.383C187.341 212.362 187.436 212.32 187.518 212.286C187.634 212.238 187.761 212.226 187.885 212.202C198.638 210.114 211.553 205.205 220.861 198.724C233.395 189.821 243.55 177.58 249.579 163.272C253.863 153.256 256.243 142.128 256.243 130.522C256.243 128.614 256.084 126.866 256.084 124.958C255.132 110.968 250.848 97.9313 243.867 86.6438C243.217 85.6671 242.567 84.6904 241.917 83.7137C241.39 82.9212 241.494 81.8668 242.167 81.193L243.391 79.9666L272.977 50.3213C274.237 49.0595 276.393 49.9514 276.393 51.7341V75.9921C276.393 78.0589 277.98 79.6487 280.042 79.6487H300.193C302.255 79.6487 303.842 78.0589 303.842 75.9921V43.0834V2C303.842 0.895434 302.946 0 301.842 0H228Z" fill="#E1F6E2"/>
</svg>
