<svg width="20" height="20" viewBox="0 0 20 20" fill="none" xmlns="http://www.w3.org/2000/svg">
<path d="M15.4004 20C11.4668 20 7.53711 20 3.60352 20C3.5293 19.9766 3.45898 19.9492 3.38477 19.9297C2.58789 19.7148 2.00586 18.9961 2.00586 18.1719C1.99805 15.2227 1.99805 12.2773 2.00586 9.32812C2.00977 8.4375 2.67383 7.67578 3.56055 7.53906C3.86523 7.49219 4.17773 7.5 4.50195 7.48438C4.50195 7.41016 4.50195 7.33984 4.50195 7.26953C4.50195 6.48047 4.49414 5.69531 4.50586 4.90625C4.5293 2.81641 5.91602 0.917969 7.90039 0.273438C8.2793 0.148438 8.68164 0.0898438 9.07227 0C9.35742 0 9.64648 0 9.93164 0C10.0332 0.015625 10.1348 0.0351562 10.2363 0.0507812C12.7598 0.46875 14.498 2.51953 14.502 5.08203C14.502 5.81641 14.502 6.55469 14.502 7.28906C14.502 7.35547 14.502 7.42578 14.502 7.50391C14.748 7.50391 14.959 7.5 15.1738 7.50391C16.1699 7.52734 16.9941 8.33203 16.9941 9.32812C17.0059 12.2773 17.002 15.2227 16.9941 18.1719C16.9941 18.9414 16.4902 19.6211 15.7637 19.8828C15.6465 19.9258 15.5215 19.9609 15.4004 20ZM12.8301 7.48828C12.8301 6.83984 12.834 6.20312 12.8262 5.56641C12.8223 5.18359 12.8301 4.79688 12.7754 4.41797C12.5137 2.67969 10.7559 1.41406 9.02148 1.70312C7.32617 1.98437 6.17773 3.32813 6.16992 5.04297C6.16602 5.6875 6.16992 6.33203 6.16992 6.97656C6.16992 7.14453 6.16992 7.3125 6.16992 7.48828C8.39258 7.48828 10.5957 7.48828 12.8301 7.48828Z" fill="black"/>
<path d="M15.4004 20C11.4668 20 7.53711 20 3.60352 20C3.5293 19.9766 3.45898 19.9492 3.38477 19.9297C2.58789 19.7148 2.00586 18.9961 2.00586 18.1719C1.99805 15.2227 1.99805 12.2773 2.00586 9.32812C2.00977 8.4375 2.67383 7.67578 3.56055 7.53906C3.86523 7.49219 4.17773 7.5 4.50195 7.48438C4.50195 7.41016 4.50195 7.33984 4.50195 7.26953C4.50195 6.48047 4.49414 5.69531 4.50586 4.90625C4.5293 2.81641 5.91602 0.917969 7.90039 0.273438C8.2793 0.148438 8.68164 0.0898438 9.07227 0C9.35742 0 9.64648 0 9.93164 0C10.0332 0.015625 10.1348 0.0351562 10.2363 0.0507812C12.7598 0.46875 14.498 2.51953 14.502 5.08203C14.502 5.81641 14.502 6.55469 14.502 7.28906C14.502 7.35547 14.502 7.42578 14.502 7.50391C14.748 7.50391 14.959 7.5 15.1738 7.50391C16.1699 7.52734 16.9941 8.33203 16.9941 9.32812C17.0059 12.2773 17.002 15.2227 16.9941 18.1719C16.9941 18.9414 16.4902 19.6211 15.7637 19.8828C15.6465 19.9258 15.5215 19.9609 15.4004 20ZM12.8301 7.48828C12.8301 6.83984 12.834 6.20312 12.8262 5.56641C12.8223 5.18359 12.8301 4.79688 12.7754 4.41797C12.5137 2.67969 10.7559 1.41406 9.02148 1.70312C7.32617 1.98437 6.17773 3.32813 6.16992 5.04297C6.16602 5.6875 6.16992 6.33203 6.16992 6.97656C6.16992 7.14453 6.16992 7.3125 6.16992 7.48828C8.39258 7.48828 10.5957 7.48828 12.8301 7.48828Z" fill="url(#paint0_linear_183_149)"/>
<defs>
<linearGradient id="paint0_linear_183_149" x1="2" y1="0" x2="21.6959" y2="7.25409" gradientUnits="userSpaceOnUse">
<stop stop-color="#AFE11E"/>
<stop offset="1" stop-color="#4DB856"/>
</linearGradient>
</defs>
</svg>
