<svg width="20" height="20" viewBox="0 0 20 20" fill="none" xmlns="http://www.w3.org/2000/svg">
<g clip-path="url(#clip0_183_154)">
<path d="M19.9998 7.95231C19.9998 10.2912 19.9998 12.6301 19.9998 14.9689C19.9894 14.9897 19.9738 15.0157 19.9686 15.0365C19.7607 16.1436 18.9031 16.8764 17.7857 16.8764C12.6089 16.8816 7.43223 16.8816 2.25031 16.8764C0.997714 16.8764 0.04657 15.9201 0.0413725 14.6623C0.036175 12.4845 0.0413725 10.312 0.0413725 8.13422C0.0413725 7.88994 0.0933476 7.83276 0.33763 7.83276C6.79293 7.83276 13.2534 7.83276 19.7087 7.83796C19.8023 7.83796 19.901 7.91592 19.9998 7.95231ZM5.03098 12.8328C5.08815 12.0999 4.7815 11.8816 4.10582 11.8816C3.37297 11.8816 3.14948 12.1207 3.14948 12.8328C3.14948 13.5292 3.38337 13.7787 4.09543 13.7787C4.80749 13.7735 5.08295 13.524 5.03098 12.8328Z" fill="black"/>
<path d="M19.9998 7.95231C19.9998 10.2912 19.9998 12.6301 19.9998 14.9689C19.9894 14.9897 19.9738 15.0157 19.9686 15.0365C19.7607 16.1436 18.9031 16.8764 17.7857 16.8764C12.6089 16.8816 7.43223 16.8816 2.25031 16.8764C0.997714 16.8764 0.04657 15.9201 0.0413725 14.6623C0.036175 12.4845 0.0413725 10.312 0.0413725 8.13422C0.0413725 7.88994 0.0933476 7.83276 0.33763 7.83276C6.79293 7.83276 13.2534 7.83276 19.7087 7.83796C19.8023 7.83796 19.901 7.91592 19.9998 7.95231ZM5.03098 12.8328C5.08815 12.0999 4.7815 11.8816 4.10582 11.8816C3.37297 11.8816 3.14948 12.1207 3.14948 12.8328C3.14948 13.5292 3.38337 13.7787 4.09543 13.7787C4.80749 13.7735 5.08295 13.524 5.03098 12.8328Z" fill="url(#paint0_linear_183_154)"/>
<path d="M19.9992 6.47097C19.9005 6.50735 19.8069 6.58532 19.7082 6.58532C13.2529 6.59051 6.79236 6.59051 0.337061 6.59051C0.0979755 6.59051 0.0356054 6.53334 0.0460004 6.28906C0.0615929 5.7901 0.0304079 5.28074 0.129161 4.79737C0.321468 3.85143 1.18945 3.19134 2.15619 3.16016C2.23935 3.16016 2.32251 3.16016 2.41087 3.16016C7.47844 3.16016 12.546 3.16016 17.6136 3.16016C18.9182 3.16016 19.6822 3.76827 19.9836 5.03646C19.9888 5.04685 19.9992 5.05725 20.0044 5.06764C19.9992 5.53542 19.9992 6.00319 19.9992 6.47097Z" fill="black"/>
<path d="M19.9992 6.47097C19.9005 6.50735 19.8069 6.58532 19.7082 6.58532C13.2529 6.59051 6.79236 6.59051 0.337061 6.59051C0.0979755 6.59051 0.0356054 6.53334 0.0460004 6.28906C0.0615929 5.7901 0.0304079 5.28074 0.129161 4.79737C0.321468 3.85143 1.18945 3.19134 2.15619 3.16016C2.23935 3.16016 2.32251 3.16016 2.41087 3.16016C7.47844 3.16016 12.546 3.16016 17.6136 3.16016C18.9182 3.16016 19.6822 3.76827 19.9836 5.03646C19.9888 5.04685 19.9992 5.05725 20.0044 5.06764C19.9992 5.53542 19.9992 6.00319 19.9992 6.47097Z" fill="url(#paint1_linear_183_154)"/>
</g>
<defs>
<linearGradient id="paint0_linear_183_154" x1="0.0390625" y1="7.83276" x2="13.7319" y2="22.6662" gradientUnits="userSpaceOnUse">
<stop stop-color="#AFE11E"/>
<stop offset="1" stop-color="#4DB856"/>
</linearGradient>
<linearGradient id="paint1_linear_183_154" x1="0.0449219" y1="3.16016" x2="3.29295" y2="12.4398" gradientUnits="userSpaceOnUse">
<stop stop-color="#AFE11E"/>
<stop offset="1" stop-color="#4DB856"/>
</linearGradient>
<clipPath id="clip0_183_154">
<rect width="20" height="20" fill="white"/>
</clipPath>
</defs>
</svg>
